<svg xmlns="http://www.w3.org/2000/svg" viewBox="0 0 66.06 2.19" width="100%" height="100%" preserveAspectRatio="none"
    fill="#f1eee5">
    <path
        d="M39.94.88s0 .18.07.18c.3-.09.61.19.92-.16.15-.17.33-.11.5-.2a2.19 2.19 0 0 1 1-.23h2.27c.38 0 .76-.16 1.14-.19s.78 0 1.17 0 .46.14.69.25a.79.79 0 0 0 1 0h.23a2.75 2.75 0 0 0 .87 0 13.76 13.76 0 0 1 3.5-.29c.46-.37.94-.16 1.41-.21a1 1 0 0 1 .93.38 1.33 1.33 0 0 0 1.17.23 4 4 0 0 0 .5-.55 1.47 1.47 0 0 0 .4.14h2a6.83 6.83 0 0 1 .73.19c.08 0 .16-.11.24-.18.27.41.61-.1.86.25s.57-.28.85 0l.1.29a.72.72 0 0 1-.72.31h-2.24c-.31 0-.6-.29-.92-.24s-.63.33-1 .25a3 3 0 0 0-.95 0c-.07 0-.13.21-.2.18s-.23.2-.35.21-.21-.14-.31-.19a.7.7 0 0 0-.27 0h-6.94c-.6 0-1.19-.23-1.79-.23-.32 0-.63.3-1 .25a1.35 1.35 0 0 0-.94 0 2.4 2.4 0 0 1-1.18.17H42.5c-.4 0-.73.33-1.11.2-.26.37-.53.18-.8.2s-.68.31-1 .23-.72.12-1.06-.05a2.6 2.6 0 0 0-1.11-.17 2.45 2.45 0 0 0-1.14 0 4.18 4.18 0 0 1-2.47.13 23.23 23.23 0 0 0-3.46-.15H26.9a2.11 2.11 0 0 1-.54-.2c-.17-.05-.33 0-.5-.18s-.28-.07-.41 0c-.31.12-.61-.23-.92-.22s-.62.15-.91 0-.66-.13-1-.16a1.77 1.77 0 0 0-1 0c-.67.34-1.35.08-2 .18-.44-.36-.89-.18-1.33-.2a3.18 3.18 0 0 0-1.33 0 5 5 0 0 1-1.68.17h-1.71c-.08 0-.16.1-.24.15-.25.18-.49.47-.77.08a1.54 1.54 0 0 0-1.51-.21c-.22.19-.41.07-.62 0a1 1 0 0 0-.83 0 5.9 5.9 0 0 1-2 .2c-.17 0-.32.29-.5.2s-.35.14-.51-.14-.33.05-.5-.24-.31-.13-.44 0-.34.2-.52 0-.26-.15-.37 0c-.38.46-.75.14-1.1-.12-.14-.1-.3-.2-.39-.07s-.41.13-.62.17-.35 0-.53 0-.22-.08-.36-.29L2 .66h1.21c.12 0 .25.14.35-.19 0-.07.11 0 .17.06s.09.13.13.13a1.84 1.84 0 0 1 1 .42c.06 0 .14.06.19 0 .26-.35.54-.18.8-.19h1.74c.58 0 1-.36 1.52-.21.16-.31.37-.11.55-.39s.27 0 .41 0 .49-.11.72 0c.56.33 1.13 0 1.67.22a4.55 4.55 0 0 0 1.64.17 4.44 4.44 0 0 0 1.67 0c.7-.22 1.4 0 2.09-.21a8.71 8.71 0 0 1 2.4-.22 7.7 7.7 0 0 1 2.46 0 14.31 14.31 0 0 0 2 .16c.32 0 .63-.29 1-.22a1.41 1.41 0 0 0 1 0 4.74 4.74 0 0 1 2-.17 11.06 11.06 0 0 1 2 0c.27 0 .53.34.79.52a2.76 2.76 0 0 1 .68.5h.08c.2-.09.38-.33.6-.13a.64.64 0 0 0 .59.12c.36-.07.71-.28 1.07-.2.3-.4.61-.16.92-.2a1.38 1.38 0 0 1 .94 0c.3.18.6 0 .88.19.57.36 1.14.08 1.71.19.09 0 .2-.11.28.15a.09.09 0 0 0 .14 0c.16.01.33-.16.54-.28zM65.3.65c-.3 0-.61-.15-.88.36-.06.11-.17 0-.26 0h-.87s-.07-.15-.11-.26 0-.09 0-.09.27.13.37-.15c.13.06.26.22.36.13s.17-.18.27-.18h1a1 1 0 0 1 .12.19zM1.49 1.22H.11S.06 1.08 0 .94A1.56 1.56 0 0 1 .74.87c.26.01.49-.16.75.35zM65.28.7l.65-.3.12.34c-.06.1-.11.24-.17.28-.2.14-.41.09-.6-.32z" />
</svg>